<?xml version="1.0" encoding="UTF-8" standalone="no"?>
<!-- Created with Inkscape (http://www.inkscape.org/) -->

<svg
   version="1.1"
   id="svg2"
   width="482.06668"
   height="194.36"
   viewBox="0 0 482.06668 194.36"
   sodipodi:docname="02 Logo Colour Horizontal [for dark bkg].eps"
   xmlns:inkscape="http://www.inkscape.org/namespaces/inkscape"
   xmlns:sodipodi="http://sodipodi.sourceforge.net/DTD/sodipodi-0.dtd"
   xmlns="http://www.w3.org/2000/svg"
   xmlns:svg="http://www.w3.org/2000/svg">
  <defs
     id="defs6" />
  <sodipodi:namedview
     id="namedview4"
     pagecolor="#ffffff"
     bordercolor="#000000"
     borderopacity="0.25"
     inkscape:showpageshadow="2"
     inkscape:pageopacity="0.0"
     inkscape:pagecheckerboard="0"
     inkscape:deskcolor="#d1d1d1" />
  <g
     id="g8"
     inkscape:groupmode="layer"
     inkscape:label="ink_ext_XXXXXX"
     transform="matrix(1.3333333,0,0,-1.3333333,0,194.36)">
    <g
       id="g10"
       transform="scale(0.1)">
      <path
         d="m 904.148,1064.02 0.024,-110.934 h 44.766 v 110.934 h -44.79"
         style="fill:#5c1237;fill-opacity:1;fill-rule:nonzero;stroke:none"
         id="path12" />
      <path
         d="m 929.844,721.715 v 78.496 c 0,14.238 -11.297,26.629 -25.672,27.891 l 0.016,-106.387 h 25.656"
         style="fill:#5c1237;fill-opacity:1;fill-rule:nonzero;stroke:none"
         id="path14" />
      <path
         d="M 837.336,1057.5 V 953.102 l -71.801,-9.434 v 99.102 l 49.778,14.73 22.023,6.52 z m 16.902,-104.414 v 110.934 h 49.91 l -0.015,213.96 c -0.813,0.44 -1.738,0.69 -2.707,0.69 -3.028,0 -5.321,-2.44 -5.321,-5.47 v -21.67 h -11.292 v -19.82 h -8.434 l -17.856,-32.43 h -11.46 v -21.84 h -0.059 -2.094 l -121.512,-95.87 -0.046,-23.73 h 18.418 v -0.34 -14.73 -99.102 -19.727 h -26.68 v -25.968 l 46.211,-20.86 -77.055,-694.953 c 18.559,-2.058 37.402,-3.121 56.508,-3.121 56.172,0 110.191,9.18 160.672,26.109 0.937,0.313 1.875,0.641 2.812,0.961 l -0.05,515.606 h -2.704 -0.058 -27.727 -0.703 v 78.496 c 0,14.43 11.594,27.016 26.25,27.98 0.617,0.067 1.547,0.145 2.18,0.145 0.019,0 0.027,0 0.058,0 0.633,0 1.496,-0.078 2.121,-0.145 0.196,-0.011 0.379,-0.078 0.567,-0.089 v 124.984 h -2.746 -47.188"
         style="fill:#5c1237;fill-opacity:1;fill-rule:nonzero;stroke:none"
         id="path16" />
      <path
         d="m 722.605,1188.32 c -85.867,-3.03 -166.277,-27.52 -236.035,-68.26 l 255.2,-77.29 v 14.73 0.34 h -18.418 l 0.046,23.73 121.512,95.87 h 2.094 c -34.262,7.33 -69.809,11.21 -106.25,11.21 -6.074,0 -12.121,-0.12 -18.149,-0.33"
         style="fill:#f19914;fill-opacity:1;fill-rule:nonzero;stroke:none"
         id="path18" />
      <path
         d="m 1079.79,1057.84 v 0 h -18.37 v -15.07 l 26.1,7.92 c -2.55,2.41 -5.13,4.8 -7.73,7.15"
         style="fill:#f19914;fill-opacity:1;fill-rule:nonzero;stroke:none"
         id="path20" />
      <path
         d="m 1194.76,904.785 -133.34,38.883 v -19.727 h 26.67 v -25.968 l -46.21,-20.86 60.47,-545.504 c 88.62,90.95 143.21,215.223 143.21,352.235 0,79.238 -18.27,154.207 -50.8,220.941"
         style="fill:#f19914;fill-opacity:1;fill-rule:nonzero;stroke:none"
         id="path22" />
      <path
         d="m 715.09,923.941 h 26.68 v 19.727 L 249.434,800.195 c -8.821,-37.351 -13.489,-76.308 -13.489,-116.351 0,-259.696 196.106,-473.582 448.301,-501.684 l 77.055,694.953 -46.211,20.86 v 25.968"
         style="fill:#f19914;fill-opacity:1;fill-rule:nonzero;stroke:none"
         id="path24" />
      <path
         d="M 249.434,800.195 741.77,943.668 v 99.102 l -255.2,77.29 C 368.918,1051.37 281.57,936.441 249.434,800.195"
         style="fill:#f4ec07;fill-opacity:1;fill-rule:nonzero;stroke:none"
         id="path26" />
      <path
         d="m 1087.52,1050.69 -26.1,-7.92 v -99.102 l 133.34,-38.883 c -26.8,54.965 -63.29,104.345 -107.24,145.905"
         style="fill:#f4ec07;fill-opacity:1;fill-rule:nonzero;stroke:none"
         id="path28" />
      <path
         d="m 1037.65,943.668 -71.759,9.43 v 110.922 l 22.007,-6.52 49.752,-14.73 z m 4.23,-66.555 46.21,20.86 v 25.968 h -26.67 v 19.727 99.102 14.73 0.34 h 18.37 v 0 0.02 22.2 l -0.01,1.51 -121.51,95.87 h -2.149 v 21.84 h -11.473 l -17.851,32.43 h -8.43 v 19.82 H 907.07 v 21.67 c 0,3.03 -2.629,5.47 -5.644,5.47 v -116.13 -98.52 h 47.512 v -6.52 -104.414 h -47.512 v -124.75 c 0.019,0 0.027,0 0.058,0 0.633,0 1.496,-0.078 2.121,-0.145 14.649,-0.964 26.239,-13.55 26.239,-27.98 v -78.496 h -28.36 -0.058 V 205.148 c 76.914,25.801 145.564,69.633 200.924,126.461 l -60.47,545.504"
         style="fill:#4f112e;fill-opacity:1;fill-rule:nonzero;stroke:none"
         id="path30" />
      <path
         d="m 987.898,1057.5 -22.007,6.52 V 953.098 l 71.759,-9.43 v 99.102 l -49.752,14.73"
         style="fill:#fbc814;fill-opacity:1;fill-rule:nonzero;stroke:none"
         id="path32" />
      <path
         d="m 903.605,828.191 c -0.625,0.067 -1.542,0.145 -2.179,0.145 V 721.715 h 28.418 v 78.496 c 0,14.43 -11.59,27.016 -26.239,27.98"
         style="fill:#fbc814;fill-opacity:1;fill-rule:nonzero;stroke:none"
         id="path34" />
      <path
         d="M 901.426,1057.5 V 953.086 h 47.512 v 110.934 h -47.512 v -6.52"
         style="fill:#fbc814;fill-opacity:1;fill-rule:nonzero;stroke:none"
         id="path36" />
      <path
         d="m 765.535,1042.77 v -99.102 l 71.801,9.43 v 110.922 l -22.023,-6.52 -49.778,-14.73"
         style="fill:#f4ec07;fill-opacity:1;fill-rule:nonzero;stroke:none"
         id="path38" />
      <path
         d="m 901.426,1057.5 v 6.52 H 854.238 V 953.086 h 47.188 V 1057.5"
         style="fill:#f4ec07;fill-opacity:1;fill-rule:nonzero;stroke:none"
         id="path40" />
      <path
         d="m 872.996,800.211 v -78.496 h 28.43 v 106.621 c -0.633,0 -1.563,-0.078 -2.18,-0.145 -14.656,-0.964 -26.25,-13.55 -26.25,-27.98"
         style="fill:#f4ec07;fill-opacity:1;fill-rule:nonzero;stroke:none"
         id="path42" />
      <path
         d="m 1407.41,538.316 c 0,-2.433 0.13,-4.843 0.39,-7.265 0.26,-2.422 0.9,-4.59 1.95,-6.485 1.03,-1.914 2.67,-3.418 4.92,-4.543 2.25,-1.121 5.46,-1.687 9.6,-1.687 1.89,0 3.42,-0.176 4.54,-0.52 1.12,-0.339 1.85,-1.98 2.2,-4.929 0,-1.387 -0.38,-2.676 -1.16,-3.887 -0.78,-1.211 -1.95,-1.816 -3.5,-1.816 -11.24,0.527 -21.97,0.781 -32.17,0.781 -5.19,0 -10.28,-0.039 -15.3,-0.137 -5.02,-0.078 -10.3,-0.293 -15.82,-0.644 -1.73,0 -2.94,0.605 -3.64,1.816 -0.69,1.211 -1.03,2.5 -1.03,3.887 0.16,2.949 0.86,4.59 2.07,4.929 1.21,0.344 2.68,0.52 4.41,0.52 4.15,0 7.35,0.566 9.59,1.687 2.25,1.125 3.9,2.629 4.94,4.543 1.04,1.895 1.68,4.063 1.94,6.485 0.26,2.422 0.48,4.832 0.64,7.265 v 102.969 c -0.16,2.422 -0.38,4.844 -0.64,7.266 -0.26,2.422 -0.9,4.57 -1.94,6.484 -1.04,1.895 -2.69,3.406 -4.94,4.531 -2.24,1.133 -5.44,1.688 -9.59,1.688 -1.73,0 -3.2,0.168 -4.41,0.519 -1.21,0.352 -1.91,1.993 -2.07,4.93 0,1.379 0.34,2.676 1.03,3.887 0.7,1.211 1.91,1.816 3.64,1.816 5.52,-0.34 10.76,-0.554 15.68,-0.652 4.94,-0.078 10,-0.117 15.18,-0.117 10.38,0 21.19,0.254 32.43,0.769 1.55,0 2.72,-0.605 3.5,-1.816 0.78,-1.211 1.16,-2.508 1.16,-3.887 -0.35,-2.937 -1.08,-4.578 -2.2,-4.93 -1.12,-0.351 -2.65,-0.519 -4.54,-0.519 -4.14,0 -7.35,-0.555 -9.6,-1.688 -2.25,-1.125 -3.89,-2.636 -4.92,-4.531 -1.05,-1.914 -1.69,-4.062 -1.95,-6.484 -0.26,-2.422 -0.39,-4.844 -0.39,-7.266 V 538.316"
         style="fill:#ffffff;fill-opacity:1;fill-rule:nonzero;stroke:none"
         id="path44" />
      <path
         d="m 1491.65,641.285 h -0.78 l 0.53,-102.969 c 0,-2.433 0.07,-4.843 0.25,-7.265 0.18,-2.422 0.78,-4.59 1.82,-6.485 1.03,-1.914 2.63,-3.418 4.79,-4.543 2.16,-1.121 5.32,-1.687 9.46,-1.687 1.92,0 3.47,-0.176 4.68,-0.52 1.2,-0.339 1.91,-1.98 2.08,-4.929 0,-1.387 -0.39,-2.676 -1.17,-3.887 -0.78,-1.211 -1.94,-1.816 -3.51,-1.816 -2.76,0.175 -5.14,0.312 -7.13,0.39 -1.99,0.086 -3.89,0.176 -5.71,0.254 -1.81,0.098 -3.67,0.137 -5.56,0.137 -1.92,0 -4.16,0 -6.75,0 -2.59,0 -4.8,0 -6.61,0 -1.82,0 -3.56,-0.039 -5.2,-0.137 -1.64,-0.078 -3.42,-0.168 -5.31,-0.254 -1.91,-0.078 -4.24,-0.215 -7,-0.39 -1.73,0 -2.94,0.605 -3.64,1.816 -0.69,1.211 -1.04,2.5 -1.04,3.887 0.18,2.949 0.82,4.59 1.95,4.929 1.13,0.344 2.64,0.52 4.53,0.52 4.16,0 7.31,0.566 9.48,1.687 2.15,1.125 3.77,2.629 4.8,4.543 1.04,1.895 1.64,4.063 1.82,6.485 0.16,2.422 0.25,4.832 0.25,7.265 l 0.52,102.969 c 0,3.973 -0.34,7.215 -1.04,9.727 -0.69,2.5 -1.72,4.453 -3.11,5.84 -1.39,1.375 -3.17,2.461 -5.31,3.242 -2.17,0.769 -4.81,1.426 -7.91,1.933 -2.6,0.528 -4.33,0.996 -5.2,1.434 -0.86,0.43 -1.29,1.945 -1.29,4.543 0,2.93 1,4.531 2.98,4.793 1.98,0.266 4.45,0.391 7.39,0.391 7.27,0 13.4,-0.438 18.42,-1.297 5.02,-0.871 9.51,-2.336 13.49,-4.414 3.97,-2.071 7.68,-4.883 11.15,-8.43 3.46,-3.543 7.18,-7.996 11.15,-13.348 l 71.07,-93.379 h 0.78 l -0.51,88.965 c 0,2.422 -0.1,4.844 -0.27,7.266 -0.18,2.422 -0.78,4.57 -1.81,6.484 -1.05,1.895 -2.65,3.406 -4.8,4.531 -2.16,1.133 -5.32,1.688 -9.47,1.688 -1.91,0 -3.42,0.168 -4.54,0.519 -1.12,0.352 -1.86,1.993 -2.2,4.93 0,1.379 0.38,2.676 1.17,3.887 0.77,1.211 1.94,1.816 3.5,1.816 2.76,-0.164 5.14,-0.301 7.13,-0.379 1.98,-0.097 3.85,-0.175 5.57,-0.273 1.74,-0.078 3.55,-0.117 5.45,-0.117 1.9,0 4.16,0 6.75,0 2.58,0 4.79,0 6.61,0 1.81,0 3.59,0.039 5.32,0.117 1.73,0.098 3.54,0.176 5.44,0.273 1.91,0.078 4.24,0.215 7.01,0.379 1.73,0 2.94,-0.605 3.63,-1.816 0.69,-1.211 1.04,-2.508 1.04,-3.887 -0.18,-2.937 -0.82,-4.578 -1.95,-4.93 -1.12,-0.351 -2.64,-0.519 -4.54,-0.519 -4.15,0 -7.3,-0.555 -9.47,-1.688 -2.17,-1.125 -3.75,-2.636 -4.79,-4.531 -1.04,-1.914 -1.66,-4.062 -1.82,-6.484 -0.17,-2.422 -0.26,-4.844 -0.26,-7.266 l -0.51,-130.722 c -0.18,-1.387 -1,-2.305 -2.47,-2.735 -1.47,-0.43 -2.82,-0.644 -4.02,-0.644 -3.29,0 -5.8,1.121 -7.52,3.379 l -97.79,130.722"
         style="fill:#ffffff;fill-opacity:1;fill-rule:nonzero;stroke:none"
         id="path46" />
      <path
         d="m 1707.14,513.148 c 5.53,0 10.51,0.872 14.91,2.59 4.41,1.739 8.13,3.985 11.15,6.758 3.03,2.754 5.33,5.918 6.88,9.461 1.55,3.547 2.33,7.129 2.33,10.762 0,7.09 -2.17,12.969 -6.48,17.636 -4.33,4.68 -9.69,8.731 -16.09,12.2 -6.39,3.457 -13.35,6.738 -20.88,9.851 -7.51,3.117 -14.56,6.699 -21.14,10.762 -6.56,4.062 -12.05,9.035 -16.46,14.914 -4.42,5.879 -6.7,13.32 -6.88,22.305 -0.17,8.125 1.13,15.136 3.89,21.015 2.77,5.879 6.7,10.672 11.81,14.395 5.09,3.711 11.11,6.484 18.02,8.301 6.92,1.816 14.35,2.715 22.31,2.715 5.71,0 11.5,-0.606 17.38,-1.809 5.87,-1.219 11.15,-3.113 15.82,-5.711 4.67,-2.59 8.47,-5.957 11.42,-10.117 2.93,-4.141 4.4,-9.16 4.4,-15.039 0,-6.231 -2.12,-11.367 -6.36,-15.43 -4.23,-4.062 -9.72,-6.094 -16.46,-6.094 -4.5,0.34 -7.66,1.512 -9.47,3.516 -1.82,2 -2.72,3.523 -2.72,4.57 0,0.352 0.65,0.742 1.94,1.172 1.3,0.43 2.73,1.172 4.28,2.215 1.55,1.047 2.98,2.48 4.29,4.309 1.29,1.816 1.93,4.296 1.93,7.441 0,6.602 -2.5,11.699 -7.52,15.254 -5.02,3.574 -11.24,5.351 -18.67,5.351 -5.7,0 -10.59,-0.742 -14.66,-2.218 -4.06,-1.473 -7.39,-3.387 -9.99,-5.731 -2.58,-2.344 -4.49,-5.078 -5.7,-8.215 -1.21,-3.125 -1.82,-6.336 -1.82,-9.636 0,-6.426 1.73,-11.641 5.2,-15.645 3.46,-3.996 8.63,-7.91 15.56,-11.719 7.78,-4.16 15.69,-7.968 23.73,-11.418 8.03,-3.464 15.39,-7.441 22.05,-11.933 6.65,-4.5 12.1,-9.949 16.33,-16.336 4.24,-6.406 6.36,-14.707 6.36,-24.902 0,-6.583 -1.6,-12.676 -4.79,-18.282 -3.21,-5.625 -7.52,-10.468 -12.97,-14.531 -5.45,-4.062 -11.9,-7.266 -19.33,-9.59 -7.43,-2.344 -15.3,-3.515 -23.6,-3.515 -18.17,0 -32.03,3.125 -41.63,9.343 -9.6,6.223 -14.4,15.559 -14.4,28.02 0,6.219 2.12,11.367 6.36,15.43 4.24,4.062 9.73,6.093 16.47,6.093 4.49,-0.351 7.65,-1.515 9.47,-3.496 1.81,-1.992 2.71,-3.508 2.71,-4.551 0,-0.343 -0.47,-0.734 -1.42,-1.164 -0.95,-0.437 -2.03,-1.16 -3.24,-2.195 -1.22,-1.047 -2.29,-2.473 -3.25,-4.289 -0.94,-1.816 -1.42,-4.277 -1.42,-7.391 0,-7.773 2.38,-13.965 7.13,-18.547 4.76,-4.578 12.5,-6.875 23.22,-6.875"
         style="fill:#ffffff;fill-opacity:1;fill-rule:nonzero;stroke:none"
         id="path48" />
      <path
         d="m 1926.78,671.637 c 1.9,0 3.49,-0.442 4.79,-1.309 1.3,-0.859 1.95,-2.5 1.95,-4.922 l 1.04,-36.574 c 0,-1.727 -0.74,-3.027 -2.21,-3.894 -1.47,-0.86 -2.9,-1.29 -4.27,-1.29 -1.92,0 -3.76,0.391 -5.58,1.172 -1.82,0.77 -2.9,1.934 -3.24,3.496 -0.87,5.879 -1.87,10.899 -2.99,15.039 -1.12,4.149 -2.6,7.618 -4.4,10.372 -1.82,2.773 -4.16,4.804 -7.02,6.101 -2.85,1.301 -6.52,2.031 -11.01,2.199 H 1876.2 V 538.316 c 0,-2.433 0.13,-4.843 0.38,-7.265 0.27,-2.422 0.91,-4.59 1.96,-6.485 1.03,-1.914 2.67,-3.418 4.92,-4.543 2.24,-1.121 5.45,-1.687 9.6,-1.687 1.73,0 3.2,-0.176 4.41,-0.52 1.2,-0.339 1.9,-1.98 2.07,-4.929 0,-1.387 -0.35,-2.676 -1.03,-3.887 -0.7,-1.211 -1.91,-1.816 -3.64,-1.816 -5.53,0.351 -10.76,0.566 -15.69,0.644 -4.93,0.098 -9.9,0.137 -14.91,0.137 -10.55,0 -21.36,-0.254 -32.42,-0.781 -1.73,0 -2.95,0.605 -3.64,1.816 -0.69,1.211 -1.03,2.5 -1.03,3.887 0.16,2.949 0.82,4.59 1.94,4.929 1.12,0.344 2.63,0.52 4.54,0.52 4.15,0 7.35,0.566 9.59,1.687 2.25,1.125 3.9,2.629 4.93,4.543 1.04,1.895 1.69,4.063 1.95,6.485 0.26,2.422 0.39,4.832 0.39,7.265 v 123.711 h -17.89 c -4.5,-0.168 -8.18,-0.898 -11.03,-2.199 -2.86,-1.297 -5.18,-3.328 -7,-6.101 -1.82,-2.754 -3.24,-6.223 -4.28,-10.372 -1.04,-4.14 -1.99,-9.16 -2.86,-15.039 -0.34,-1.562 -1.47,-2.726 -3.37,-3.496 -1.9,-0.781 -3.81,-1.172 -5.7,-1.172 -1.39,0 -2.77,0.43 -4.16,1.29 -1.39,0.867 -2.07,2.167 -2.07,3.894 l 0.78,36.574 c 0,2.422 0.68,4.063 2.07,4.922 1.39,0.867 3.03,1.309 4.93,1.309 h 126.84"
         style="fill:#ffffff;fill-opacity:1;fill-rule:nonzero;stroke:none"
         id="path50" />
      <path
         d="m 2007.91,538.316 c 0,-2.433 0.13,-4.843 0.39,-7.265 0.25,-2.422 0.91,-4.59 1.94,-6.485 1.04,-1.914 2.68,-3.418 4.93,-4.543 2.24,-1.121 5.45,-1.687 9.6,-1.687 1.9,0 3.41,-0.176 4.54,-0.52 1.12,-0.339 1.85,-1.98 2.2,-4.929 0,-1.387 -0.39,-2.676 -1.16,-3.887 -0.78,-1.211 -1.95,-1.816 -3.5,-1.816 -11.24,0.527 -21.97,0.781 -32.17,0.781 -5.19,0 -10.29,-0.039 -15.3,-0.137 -5.02,-0.078 -10.29,-0.293 -15.83,-0.644 -1.72,0 -2.93,0.605 -3.63,1.816 -0.69,1.211 -1.03,2.5 -1.03,3.887 0.16,2.949 0.87,4.59 2.08,4.929 1.2,0.344 2.67,0.52 4.4,0.52 4.15,0 7.34,0.566 9.6,1.687 2.24,1.125 3.89,2.629 4.93,4.543 1.04,1.895 1.68,4.063 1.95,6.485 0.25,2.422 0.46,4.832 0.64,7.265 v 102.969 c -0.18,2.422 -0.39,4.844 -0.64,7.266 -0.27,2.422 -0.91,4.57 -1.95,6.484 -1.04,1.895 -2.69,3.406 -4.93,4.531 -2.26,1.133 -5.45,1.688 -9.6,1.688 -1.73,0 -3.2,0.168 -4.4,0.519 -1.21,0.352 -1.92,1.993 -2.08,4.93 0,1.379 0.34,2.676 1.03,3.887 0.7,1.211 1.91,1.816 3.63,1.816 5.54,-0.34 10.77,-0.554 15.7,-0.652 4.93,-0.078 9.98,-0.117 15.17,-0.117 10.37,0 21.19,0.254 32.43,0.769 1.55,0 2.72,-0.605 3.5,-1.816 0.77,-1.211 1.16,-2.508 1.16,-3.887 -0.35,-2.937 -1.08,-4.578 -2.2,-4.93 -1.13,-0.351 -2.64,-0.519 -4.54,-0.519 -4.15,0 -7.36,-0.555 -9.6,-1.688 -2.25,-1.125 -3.89,-2.636 -4.93,-4.531 -1.03,-1.914 -1.69,-4.062 -1.94,-6.484 -0.26,-2.422 -0.39,-4.844 -0.39,-7.266 V 538.316"
         style="fill:#ffffff;fill-opacity:1;fill-rule:nonzero;stroke:none"
         id="path52" />
      <path
         d="m 2190.45,671.637 c 1.9,0 3.51,-0.442 4.8,-1.309 1.3,-0.859 1.95,-2.5 1.95,-4.922 l 1.03,-36.574 c 0,-1.727 -0.73,-3.027 -2.2,-3.894 -1.47,-0.86 -2.9,-1.29 -4.28,-1.29 -1.91,0 -3.76,0.391 -5.58,1.172 -1.81,0.77 -2.9,1.934 -3.24,3.496 -0.87,5.879 -1.86,10.899 -2.98,15.039 -1.13,4.149 -2.6,7.618 -4.41,10.372 -1.82,2.773 -4.15,4.804 -7,6.101 -2.86,1.301 -6.54,2.031 -11.03,2.199 h -17.64 V 538.316 c 0,-2.433 0.13,-4.843 0.39,-7.265 0.27,-2.422 0.91,-4.59 1.95,-6.485 1.04,-1.914 2.68,-3.418 4.93,-4.543 2.24,-1.121 5.45,-1.687 9.6,-1.687 1.73,0 3.19,-0.176 4.4,-0.52 1.21,-0.339 1.91,-1.98 2.08,-4.929 0,-1.387 -0.35,-2.676 -1.04,-3.887 -0.69,-1.211 -1.9,-1.816 -3.63,-1.816 -5.53,0.351 -10.76,0.566 -15.69,0.644 -4.93,0.098 -9.9,0.137 -14.91,0.137 -10.56,0 -21.36,-0.254 -32.43,-0.781 -1.73,0 -2.94,0.605 -3.63,1.816 -0.69,1.211 -1.04,2.5 -1.04,3.887 0.18,2.949 0.82,4.59 1.95,4.929 1.13,0.344 2.63,0.52 4.54,0.52 4.15,0 7.35,0.566 9.59,1.687 2.25,1.125 3.9,2.629 4.94,4.543 1.03,1.895 1.67,4.063 1.94,6.485 0.26,2.422 0.39,4.832 0.39,7.265 v 123.711 h -17.9 c -4.49,-0.168 -8.17,-0.898 -11.03,-2.199 -2.85,-1.297 -5.18,-3.328 -7,-6.101 -1.81,-2.754 -3.24,-6.223 -4.28,-10.372 -1.03,-4.14 -1.99,-9.16 -2.85,-15.039 -0.35,-1.562 -1.47,-2.726 -3.37,-3.496 -1.9,-0.781 -3.81,-1.172 -5.71,-1.172 -1.39,0 -2.76,0.43 -4.15,1.29 -1.39,0.867 -2.07,2.167 -2.07,3.894 l 0.77,36.574 c 0,2.422 0.69,4.063 2.08,4.922 1.38,0.867 3.03,1.309 4.93,1.309 h 126.83"
         style="fill:#ffffff;fill-opacity:1;fill-rule:nonzero;stroke:none"
         id="path54" />
      <path
         d="m 2371.18,554.137 c 0,-9.172 -1.98,-16.992 -5.96,-23.477 -3.98,-6.484 -9.04,-11.797 -15.17,-15.957 -6.14,-4.14 -12.88,-7.168 -20.24,-9.074 -7.35,-1.902 -14.39,-2.859 -21.13,-2.859 -10.38,0 -19.5,1.433 -27.36,4.285 -7.88,2.851 -14.41,6.613 -19.59,11.281 -5.19,4.668 -9.12,9.988 -11.8,15.957 -2.68,5.957 -4.02,12.148 -4.02,18.535 v 88.457 c 0,2.422 -0.13,4.844 -0.39,7.266 -0.26,2.422 -0.91,4.57 -1.95,6.484 -1.03,1.895 -2.68,3.406 -4.93,4.531 -2.24,1.133 -5.45,1.688 -9.6,1.688 -1.89,0 -3.41,0.168 -4.53,0.519 -1.13,0.352 -1.78,1.993 -1.94,4.93 0,1.379 0.34,2.676 1.03,3.887 0.69,1.211 1.91,1.816 3.64,1.816 5.52,-0.34 10.71,-0.554 15.55,-0.652 4.85,-0.078 9.87,-0.117 15.05,-0.117 10.37,0 21.18,0.254 32.42,0.769 1.73,0 2.94,-0.605 3.64,-1.816 0.68,-1.211 1.03,-2.508 1.03,-3.887 -0.17,-2.598 -0.69,-4.148 -1.56,-4.676 -0.86,-0.507 -2.07,-0.773 -3.62,-0.773 -4.51,0 -7.92,-0.555 -10.26,-1.688 -2.32,-1.125 -4.1,-2.589 -5.31,-4.406 -1.21,-1.816 -1.94,-3.933 -2.21,-6.355 -0.25,-2.422 -0.38,-4.922 -0.38,-7.52 v -80.93 c 0,-4.5 0.42,-9.207 1.29,-14.128 0.87,-4.934 2.73,-9.473 5.58,-13.625 2.86,-4.149 7.01,-7.606 12.45,-10.379 5.45,-2.766 12.75,-4.141 21.92,-4.141 8.81,0 16.04,1.121 21.65,3.367 5.63,2.246 10.08,5.227 13.36,8.957 3.28,3.711 5.58,7.86 6.88,12.442 1.3,4.578 1.94,9.207 1.94,13.886 v 68.204 c 0,8.476 -0.21,15.136 -0.64,19.98 -0.44,4.844 -1.34,8.465 -2.73,10.887 -1.39,2.422 -3.42,3.937 -6.09,4.543 -2.69,0.605 -6.18,0.906 -10.51,0.906 -1.73,0 -3.2,0.168 -4.41,0.519 -1.22,0.352 -1.9,1.993 -2.07,4.93 0,1.379 0.34,2.676 1.03,3.887 0.69,1.211 1.9,1.816 3.63,1.816 5.54,-0.34 10.46,-0.554 14.79,-0.652 4.31,-0.078 9.07,-0.117 14.27,-0.117 5.18,0 9.94,0.039 14.26,0.117 4.32,0.098 9.25,0.312 14.79,0.652 1.73,0 2.94,-0.605 3.62,-1.816 0.69,-1.211 1.05,-2.508 1.05,-3.887 -0.18,-2.598 -0.7,-4.148 -1.57,-4.676 -0.87,-0.507 -2.07,-0.773 -3.63,-0.773 -4.67,0 -8.42,-0.262 -11.28,-0.77 -2.85,-0.527 -5.02,-1.914 -6.48,-4.16 -1.48,-2.246 -2.42,-5.703 -2.85,-10.371 -0.43,-4.668 -0.66,-11.152 -0.66,-19.453 v -72.363"
         style="fill:#ffffff;fill-opacity:1;fill-rule:nonzero;stroke:none"
         id="path56" />
      <path
         d="m 2556.59,671.637 c 1.91,0 3.5,-0.442 4.8,-1.309 1.3,-0.859 1.94,-2.5 1.94,-4.922 l 1.05,-36.574 c 0,-1.727 -0.75,-3.027 -2.21,-3.894 -1.48,-0.86 -2.9,-1.29 -4.28,-1.29 -1.91,0 -3.76,0.391 -5.58,1.172 -1.81,0.77 -2.9,1.934 -3.24,3.496 -0.87,5.879 -1.86,10.899 -2.99,15.039 -1.12,4.149 -2.59,7.618 -4.4,10.372 -1.82,2.773 -4.15,4.804 -7.01,6.101 -2.85,1.301 -6.53,2.031 -11.02,2.199 h -17.63 V 538.316 c 0,-2.433 0.12,-4.843 0.38,-7.265 0.26,-2.422 0.9,-4.59 1.95,-6.485 1.03,-1.914 2.68,-3.418 4.92,-4.543 2.25,-1.121 5.45,-1.687 9.6,-1.687 1.73,0 3.2,-0.176 4.42,-0.52 1.2,-0.339 1.89,-1.98 2.07,-4.929 0,-1.387 -0.36,-2.676 -1.04,-3.887 -0.69,-1.211 -1.9,-1.816 -3.63,-1.816 -5.54,0.351 -10.76,0.566 -15.7,0.644 -4.93,0.098 -9.9,0.137 -14.91,0.137 -10.55,0 -21.36,-0.254 -32.42,-0.781 -1.73,0 -2.94,0.605 -3.63,1.816 -0.7,1.211 -1.04,2.5 -1.04,3.887 0.17,2.949 0.81,4.59 1.95,4.929 1.12,0.344 2.63,0.52 4.54,0.52 4.15,0 7.34,0.566 9.59,1.687 2.24,1.125 3.89,2.629 4.93,4.543 1.03,1.895 1.69,4.063 1.94,6.485 0.27,2.422 0.39,4.832 0.39,7.265 v 123.711 h -17.9 c -4.49,-0.168 -8.16,-0.898 -11.01,-2.199 -2.87,-1.297 -5.2,-3.328 -7.02,-6.101 -1.8,-2.754 -3.24,-6.223 -4.27,-10.372 -1.04,-4.14 -2,-9.16 -2.85,-15.039 -0.36,-1.562 -1.48,-2.726 -3.37,-3.496 -1.91,-0.781 -3.81,-1.172 -5.71,-1.172 -1.38,0 -2.77,0.43 -4.15,1.29 -1.38,0.867 -2.08,2.167 -2.08,3.894 l 0.78,36.574 c 0,2.422 0.69,4.063 2.07,4.922 1.39,0.867 3.03,1.309 4.94,1.309 h 126.83"
         style="fill:#ffffff;fill-opacity:1;fill-rule:nonzero;stroke:none"
         id="path58" />
      <path
         d="m 2637.72,538.316 c 0,-2.433 0.13,-4.843 0.4,-7.265 0.25,-2.422 0.89,-4.59 1.94,-6.485 1.03,-1.914 2.67,-3.418 4.92,-4.543 2.25,-1.121 5.45,-1.687 9.6,-1.687 1.9,0 3.42,-0.176 4.54,-0.52 1.12,-0.339 1.86,-1.98 2.21,-4.929 0,-1.387 -0.39,-2.676 -1.16,-3.887 -0.79,-1.211 -1.96,-1.816 -3.51,-1.816 -11.24,0.527 -21.96,0.781 -32.17,0.781 -5.18,0 -10.28,-0.039 -15.3,-0.137 -5.02,-0.078 -10.29,-0.293 -15.82,-0.644 -1.73,0 -2.94,0.605 -3.63,1.816 -0.7,1.211 -1.04,2.5 -1.04,3.887 0.17,2.949 0.86,4.59 2.07,4.929 1.21,0.344 2.69,0.52 4.42,0.52 4.15,0 7.34,0.566 9.6,1.687 2.23,1.125 3.88,2.629 4.93,4.543 1.03,1.895 1.68,4.063 1.93,6.485 0.26,2.422 0.48,4.832 0.65,7.265 v 102.969 c -0.17,2.422 -0.39,4.844 -0.65,7.266 -0.25,2.422 -0.9,4.57 -1.93,6.484 -1.05,1.895 -2.7,3.406 -4.93,4.531 -2.26,1.133 -5.45,1.688 -9.6,1.688 -1.73,0 -3.21,0.168 -4.42,0.519 -1.21,0.352 -1.9,1.993 -2.07,4.93 0,1.379 0.34,2.676 1.04,3.887 0.69,1.211 1.9,1.816 3.63,1.816 5.53,-0.34 10.76,-0.554 15.69,-0.652 4.93,-0.078 9.98,-0.117 15.17,-0.117 10.38,0 21.19,0.254 32.43,0.769 1.55,0 2.72,-0.605 3.51,-1.816 0.77,-1.211 1.16,-2.508 1.16,-3.887 -0.35,-2.937 -1.09,-4.578 -2.21,-4.93 -1.12,-0.351 -2.64,-0.519 -4.54,-0.519 -4.15,0 -7.35,-0.555 -9.6,-1.688 -2.25,-1.125 -3.89,-2.636 -4.92,-4.531 -1.05,-1.914 -1.69,-4.062 -1.94,-6.484 -0.27,-2.422 -0.4,-4.844 -0.4,-7.266 V 538.316"
         style="fill:#ffffff;fill-opacity:1;fill-rule:nonzero;stroke:none"
         id="path60" />
      <path
         d="m 2768.13,514.195 c 9.16,0 17.08,2.11 23.74,6.348 6.66,4.238 12.14,9.941 16.47,17.117 4.32,7.18 7.52,15.481 9.6,24.903 2.07,9.425 3.1,19.328 3.1,29.699 0,9.687 -1.07,18.972 -3.24,27.89 -2.16,8.895 -5.44,16.719 -9.85,23.465 -4.41,6.75 -9.94,12.102 -16.6,16.086 -6.66,3.965 -14.4,5.957 -23.22,5.957 -9.17,0 -17.03,-2.07 -23.6,-6.222 -6.57,-4.149 -11.97,-9.774 -16.21,-16.864 -4.24,-7.09 -7.35,-15.293 -9.34,-24.629 -1.99,-9.336 -2.98,-19.199 -2.98,-29.57 0,-9.863 1.04,-19.238 3.11,-28.145 2.08,-8.906 5.27,-16.777 9.6,-23.605 4.32,-6.836 9.77,-12.285 16.34,-16.336 6.57,-4.062 14.27,-6.094 23.08,-6.094 z m 0.27,162.618 c 12.97,0 24.59,-2.325 34.88,-6.993 10.28,-4.668 19.02,-10.937 26.2,-18.808 7.17,-7.871 12.71,-16.907 16.6,-27.11 3.89,-10.195 5.83,-20.742 5.83,-31.64 0,-14.356 -2.54,-27.071 -7.64,-38.125 -5.11,-11.074 -11.68,-20.41 -19.72,-28.02 -8.04,-7.605 -17.03,-13.406 -26.98,-17.371 -9.94,-3.984 -19.67,-5.976 -29.17,-5.976 -12.8,0 -24.3,2.343 -34.5,7.011 -10.21,4.668 -18.85,10.938 -25.94,18.809 -7.09,7.859 -12.58,16.894 -16.47,27.098 -3.89,10.207 -5.84,20.832 -5.84,31.906 0,14.355 2.5,27.058 7.52,38.125 5.01,11.062 11.5,20.41 19.46,28.008 7.95,7.617 16.86,13.359 26.72,17.253 9.85,3.899 19.54,5.833 29.05,5.833"
         style="fill:#ffffff;fill-opacity:1;fill-rule:nonzero;stroke:none"
         id="path62" />
      <path
         d="m 2912.55,641.285 h -0.77 l 0.51,-102.969 c 0,-2.433 0.08,-4.843 0.26,-7.265 0.17,-2.422 0.78,-4.59 1.82,-6.485 1.04,-1.914 2.63,-3.418 4.8,-4.543 2.16,-1.121 5.31,-1.687 9.46,-1.687 1.91,0 3.46,-0.176 4.67,-0.52 1.21,-0.339 1.91,-1.98 2.08,-4.929 0,-1.387 -0.39,-2.676 -1.17,-3.887 -0.78,-1.211 -1.94,-1.816 -3.5,-1.816 -2.77,0.175 -5.14,0.312 -7.14,0.39 -1.98,0.086 -3.88,0.176 -5.7,0.254 -1.82,0.098 -3.67,0.137 -5.58,0.137 -1.9,0 -4.15,0 -6.74,0 -2.59,0 -4.8,0 -6.61,0 -1.82,0 -3.55,-0.039 -5.19,-0.137 -1.65,-0.078 -3.42,-0.168 -5.32,-0.254 -1.91,-0.078 -4.24,-0.215 -7,-0.39 -1.73,0 -2.94,0.605 -3.64,1.816 -0.69,1.211 -1.03,2.5 -1.03,3.887 0.17,2.949 0.82,4.59 1.94,4.929 1.12,0.344 2.64,0.52 4.54,0.52 4.15,0 7.31,0.566 9.47,1.687 2.16,1.125 3.76,2.629 4.8,4.543 1.03,1.895 1.64,4.063 1.82,6.485 0.16,2.422 0.25,4.832 0.25,7.265 l 0.52,102.969 c 0,3.973 -0.34,7.215 -1.04,9.727 -0.69,2.5 -1.73,4.453 -3.11,5.84 -1.39,1.375 -3.16,2.461 -5.32,3.242 -2.16,0.769 -4.79,1.426 -7.91,1.933 -2.59,0.528 -4.32,0.996 -5.18,1.434 -0.87,0.43 -1.3,1.945 -1.3,4.543 0,2.93 1,4.531 2.98,4.793 1.99,0.266 4.45,0.391 7.39,0.391 7.27,0 13.4,-0.438 18.42,-1.297 5.02,-0.871 9.51,-2.336 13.49,-4.414 3.98,-2.071 7.69,-4.883 11.15,-8.43 3.46,-3.543 7.18,-7.996 11.15,-13.348 l 71.07,-93.379 h 0.78 l -0.51,88.965 c 0,2.422 -0.1,4.844 -0.27,7.266 -0.17,2.422 -0.78,4.57 -1.81,6.484 -1.04,1.895 -2.64,3.406 -4.8,4.531 -2.16,1.133 -5.32,1.688 -9.47,1.688 -1.9,0 -3.42,0.168 -4.54,0.519 -1.12,0.352 -1.86,1.993 -2.2,4.93 0,1.379 0.38,2.676 1.16,3.887 0.79,1.211 1.95,1.816 3.51,1.816 2.76,-0.164 5.14,-0.301 7.13,-0.379 1.98,-0.097 3.85,-0.175 5.58,-0.273 1.72,-0.078 3.54,-0.117 5.44,-0.117 1.91,0 4.15,0 6.75,0 2.59,0 4.8,0 6.61,0 1.82,0 3.59,0.039 5.32,0.117 1.72,0.098 3.54,0.176 5.45,0.273 1.9,0.078 4.23,0.215 7,0.379 1.73,0 2.94,-0.605 3.63,-1.816 0.69,-1.211 1.04,-2.508 1.04,-3.887 -0.17,-2.937 -0.82,-4.578 -1.95,-4.93 -1.12,-0.351 -2.63,-0.519 -4.54,-0.519 -4.15,0 -7.3,-0.555 -9.46,-1.688 -2.17,-1.125 -3.76,-2.636 -4.8,-4.531 -1.04,-1.914 -1.65,-4.062 -1.82,-6.484 -0.17,-2.422 -0.26,-4.844 -0.26,-7.266 l -0.51,-130.722 c -0.18,-1.387 -1,-2.305 -2.47,-2.735 -1.47,-0.43 -2.81,-0.644 -4.02,-0.644 -3.29,0 -5.8,1.121 -7.52,3.379 l -97.79,130.722"
         style="fill:#ffffff;fill-opacity:1;fill-rule:nonzero;stroke:none"
         id="path64" />
      <path
         d="m 1470.75,948.699 c 2.29,0 4.2,-0.519 5.76,-1.554 1.57,-1.04 2.34,-3.012 2.34,-5.915 l 1.24,-43.886 c 0,-2.074 -0.88,-3.633 -2.64,-4.672 -1.78,-1.035 -3.49,-1.555 -5.14,-1.555 -2.28,0 -4.51,0.465 -6.69,1.403 -2.17,0.933 -3.48,2.335 -3.89,4.199 -1.05,7.054 -2.23,13.078 -3.58,18.054 -1.35,4.977 -3.12,9.129 -5.29,12.45 -2.19,3.32 -4.98,5.761 -8.42,7.316 -3.41,1.555 -7.83,2.434 -13.22,2.645 h -21.16 V 788.715 c 0,-2.91 0.15,-5.809 0.47,-8.715 0.3,-2.91 1.08,-5.496 2.33,-7.781 1.25,-2.285 3.21,-4.098 5.92,-5.446 2.69,-1.351 6.53,-2.023 11.51,-2.023 2.07,0 3.84,-0.211 5.3,-0.625 1.44,-0.418 2.27,-2.387 2.49,-5.91 0,-1.668 -0.43,-3.219 -1.25,-4.668 -0.83,-1.453 -2.29,-2.18 -4.36,-2.18 -6.64,0.414 -12.91,0.672 -18.83,0.778 -5.92,0.105 -11.88,0.156 -17.9,0.156 -12.66,0 -25.63,-0.313 -38.91,-0.934 -2.07,0 -3.52,0.727 -4.36,2.18 -0.82,1.449 -1.23,3 -1.23,4.668 0.2,3.523 0.98,5.492 2.32,5.91 1.35,0.414 3.17,0.625 5.45,0.625 4.98,0 8.81,0.672 11.53,2.023 2.68,1.348 4.67,3.161 5.91,5.446 1.24,2.285 2.02,4.871 2.33,7.781 0.31,2.906 0.47,5.805 0.47,8.715 v 148.469 h -21.49 c -5.39,-0.211 -9.79,-1.09 -13.22,-2.645 -3.43,-1.555 -6.23,-3.996 -8.41,-7.316 -2.17,-3.321 -3.88,-7.473 -5.12,-12.45 -1.25,-4.976 -2.4,-11 -3.43,-18.054 -0.42,-1.864 -1.77,-3.266 -4.05,-4.199 -2.28,-0.938 -4.57,-1.403 -6.84,-1.403 -1.67,0 -3.33,0.52 -4.98,1.555 -1.67,1.039 -2.5,2.598 -2.5,4.672 l 0.94,43.886 c 0,2.903 0.83,4.875 2.49,5.915 1.66,1.035 3.63,1.554 5.9,1.554 h 152.21"
         style="fill:#ffffff;fill-opacity:1;fill-rule:nonzero;stroke:none"
         id="path66" />
      <path
         d="m 1524.29,827.934 h 65.35 l -31.43,79.992 h -0.93 z m 12.44,122.632 c 6.42,0 12.09,-0.464 16.97,-1.402 4.86,-0.934 9.22,-2.543 13.07,-4.824 3.84,-2.285 7.31,-5.602 10.43,-9.953 3.1,-4.364 6.11,-9.961 9.02,-16.813 l 52.29,-128.859 c 1.03,-2.699 2.18,-5.442 3.42,-8.246 1.24,-2.805 2.7,-5.348 4.37,-7.625 1.66,-2.285 3.62,-4.199 5.91,-5.758 2.27,-1.559 5.08,-2.336 8.41,-2.336 2.27,0 4.09,-0.211 5.43,-0.625 1.35,-0.418 2.12,-2.387 2.34,-5.91 0,-1.668 -0.47,-3.219 -1.4,-4.668 -0.94,-1.453 -2.33,-2.18 -4.21,-2.18 -6.64,0.414 -12.44,0.672 -17.42,0.778 -4.98,0.105 -10.58,0.156 -16.82,0.156 -12.44,0 -25.31,-0.313 -38.59,-0.934 -2.07,0 -3.52,0.727 -4.35,2.18 -0.83,1.449 -1.24,3 -1.24,4.668 0.2,3.523 0.98,5.492 2.33,5.91 1.35,0.414 3.16,0.625 5.45,0.625 4.98,0 8.81,0.465 11.51,1.402 2.7,0.934 4.41,2.332 5.14,4.2 0.72,1.867 0.83,4.304 0.3,7.312 -0.51,3.004 -1.6,6.695 -3.26,11.051 l -10.59,25.836 h -76.87 c -4.98,-12.66 -8.3,-21.274 -9.96,-25.836 -1.66,-5.399 -2.8,-9.649 -3.42,-12.758 -0.62,-3.113 -0.31,-5.504 0.93,-7.164 1.24,-1.664 3.58,-2.754 7,-3.266 3.42,-0.523 8.14,-0.777 14.16,-0.777 2.29,0 4.1,-0.211 5.45,-0.625 1.35,-0.418 2.13,-2.387 2.33,-5.91 0,-1.668 -0.46,-3.219 -1.39,-4.668 -0.94,-1.453 -2.34,-2.18 -4.21,-2.18 -6.63,0.414 -12.4,0.672 -17.28,0.778 -4.87,0.105 -10.42,0.156 -16.64,0.156 -3.12,0 -5.82,0 -8.1,0 -2.29,0 -4.52,-0.051 -6.68,-0.156 -2.19,-0.106 -4.48,-0.207 -6.86,-0.313 -2.38,-0.102 -5.23,-0.262 -8.55,-0.465 -2.07,0 -3.54,0.727 -4.36,2.18 -0.83,1.449 -1.25,3 -1.25,4.668 0.22,3.523 0.99,5.492 2.34,5.91 1.35,0.414 3.15,0.625 5.43,0.625 4.16,0 7.52,0.672 10.13,2.023 2.59,1.348 4.77,3.161 6.53,5.446 1.76,2.285 3.27,4.871 4.52,7.781 1.25,2.906 2.49,5.805 3.73,8.715 l 54.47,128.859 c 1.44,3.735 1.97,6.742 1.56,9.028 -0.43,2.281 -1.4,4.144 -2.97,5.601 -1.54,1.449 -3.52,2.539 -5.9,3.27 -2.4,0.722 -4.83,1.297 -7.32,1.711 -3.1,0.625 -5.18,1.191 -6.22,1.714 -1.05,0.512 -1.55,2.332 -1.55,5.442 0,3.527 1.19,5.449 3.57,5.762 2.38,0.308 5.33,0.464 8.87,0.464"
         style="fill:#ffffff;fill-opacity:1;fill-rule:nonzero;stroke:none"
         id="path68" />
      <path
         d="m 1811.98,920.996 c 4.14,4.567 6.07,8.098 5.75,10.586 -0.3,2.488 -3.15,3.941 -8.56,4.356 -2.7,0.207 -4.14,2.382 -4.36,6.539 0,1.863 0.53,3.523 1.57,4.98 1.03,1.445 2.38,2.176 4.04,2.176 5.39,-0.418 11.1,-0.68 17.13,-0.778 6.01,-0.105 11.72,-0.156 17.11,-0.156 4.15,0 8.88,0.106 14.17,0.309 5.28,0.207 10,0.418 14.16,0.625 2.07,0 3.57,-0.731 4.51,-2.176 0.94,-1.457 1.4,-3.117 1.4,-4.98 -0.42,-3.114 -1.15,-4.981 -2.18,-5.602 -1.04,-0.625 -2.39,-0.937 -4.04,-0.937 -7.89,0.414 -15.52,-0.833 -22.89,-3.735 -7.36,-2.906 -15.3,-8.613 -23.8,-17.121 -3.54,-3.734 -8.15,-8.559 -13.85,-14.473 -5.71,-5.914 -11.27,-11.668 -16.66,-17.273 -6.43,-6.641 -13.07,-13.59 -19.92,-20.852 12.24,-14.941 24.65,-28.586 37.19,-40.929 12.56,-12.352 23.29,-23.297 32.22,-32.84 3.53,-3.527 6.64,-6.688 9.34,-9.492 2.69,-2.801 5.34,-5.192 7.94,-7.157 2.59,-1.976 5.23,-3.582 7.94,-4.824 2.69,-1.246 5.8,-2.082 9.33,-2.492 1.66,-0.211 3.32,-0.469 4.98,-0.781 1.66,-0.309 2.59,-2.231 2.8,-5.754 0,-1.668 -0.42,-3.219 -1.25,-4.668 -0.83,-1.453 -2.28,-2.18 -4.35,-2.18 -3.32,0.203 -5.97,0.363 -7.94,0.465 -1.97,0.106 -3.84,0.207 -5.6,0.313 -1.76,0.105 -3.58,0.156 -5.45,0.156 -1.86,0 -4.35,0 -7.47,0 h -19.92 c -11.4,12.648 -23.08,25.679 -35.01,39.062 -11.94,13.383 -24.75,28.063 -38.44,44.043 -3.74,4.356 -7.21,7.41 -10.43,9.18 -3.22,1.762 -6.49,2.852 -9.8,3.269 v -59.14 c 0,-2.91 0.15,-5.809 0.46,-8.715 0.31,-2.91 1.09,-5.496 2.34,-7.781 1.24,-2.285 3.22,-4.098 5.91,-5.446 2.7,-1.351 6.53,-2.023 11.52,-2.023 2.28,0 4.1,-0.211 5.44,-0.625 1.35,-0.418 2.13,-2.387 2.34,-5.91 0,-1.668 -0.42,-3.219 -1.24,-4.668 -0.84,-1.453 -2.29,-2.18 -4.36,-2.18 -13.49,0.621 -26.35,0.934 -38.6,0.934 -6.22,0 -12.3,-0.051 -18.21,-0.156 -5.9,-0.106 -12.19,-0.364 -18.83,-0.778 -2.07,0 -3.54,0.727 -4.36,2.18 -0.83,1.449 -1.24,3 -1.24,4.668 0.21,3.523 0.98,5.492 2.34,5.91 1.34,0.414 3.16,0.625 5.45,0.625 4.98,0 8.8,0.672 11.51,2.023 2.68,1.348 4.67,3.161 5.91,5.446 1.25,2.285 2.03,4.871 2.34,7.781 0.31,2.906 0.46,5.805 0.46,8.715 v 123.57 c 0,2.903 -0.15,5.805 -0.46,8.711 -0.31,2.906 -1.09,5.496 -2.34,7.781 -1.24,2.282 -3.23,4.098 -5.91,5.453 -2.71,1.34 -6.53,2.02 -11.51,2.02 -2.29,0 -4.11,0.203 -5.45,0.625 -1.36,0.41 -2.13,2.379 -2.34,5.914 0,1.863 0.41,3.465 1.24,4.824 0.82,1.34 2.29,2.02 4.36,2.02 6.64,-0.418 12.87,-0.68 18.68,-0.778 5.81,-0.105 11.83,-0.156 18.05,-0.156 12.45,0 25.42,0.309 38.91,0.934 2.07,0 3.52,-0.625 4.36,-1.863 0.82,-1.247 1.24,-2.911 1.24,-4.981 -0.21,-3.117 -0.89,-4.98 -2.02,-5.605 -1.15,-0.621 -3.07,-0.934 -5.76,-0.934 -4.99,0 -8.82,-0.68 -11.52,-2.02 -2.69,-1.355 -4.67,-3.171 -5.91,-5.453 -1.25,-2.285 -2.03,-4.875 -2.34,-7.781 -0.31,-2.906 -0.46,-5.808 -0.46,-8.711 v -56.34 c 3.53,0.828 7.63,2.903 12.3,6.227 4.66,3.316 9.38,7.051 14.16,11.203 7.88,7.266 15.56,15.098 23.02,23.5 7.48,8.402 14.42,16.445 20.86,24.121"
         style="fill:#ffffff;fill-opacity:1;fill-rule:nonzero;stroke:none"
         id="path70" />
      <path
         d="m 1968.96,758.523 c 6.64,0 12.6,1.04 17.9,3.114 5.29,2.07 9.74,4.769 13.37,8.093 3.64,3.317 6.38,7.106 8.26,11.36 1.86,4.254 2.79,8.558 2.79,12.914 0,8.512 -2.6,15.566 -7.77,21.168 -5.2,5.605 -11.63,10.476 -19.31,14.629 -7.68,4.148 -16.03,8.094 -25.05,11.832 -9.02,3.734 -17.48,8.035 -25.37,12.914 -7.88,4.871 -14.47,10.84 -19.77,17.894 -5.29,7.051 -8.03,15.977 -8.24,26.766 -0.2,9.754 1.35,18.156 4.67,25.219 3.32,7.051 8.04,12.804 14.16,17.273 6.11,4.457 13.33,7.778 21.63,9.957 8.3,2.184 17.23,3.27 26.77,3.27 6.84,0 13.8,-0.731 20.86,-2.184 7.05,-1.449 13.38,-3.734 18.98,-6.844 5.61,-3.109 10.17,-7.16 13.69,-12.136 3.53,-4.985 5.3,-11.004 5.3,-18.055 0,-7.469 -2.54,-13.644 -7.63,-18.519 -5.09,-4.879 -11.67,-7.317 -19.77,-7.317 -5.39,0.422 -9.18,1.828 -11.35,4.227 -2.18,2.406 -3.28,4.226 -3.28,5.48 0,0.422 0.79,0.887 2.35,1.406 1.55,0.52 3.26,1.411 5.13,2.664 1.86,1.254 3.58,2.973 5.13,5.165 1.56,2.187 2.34,5.167 2.34,8.925 0,7.93 -3.01,14.039 -9.03,18.317 -6.02,4.281 -13.49,6.422 -22.41,6.422 -6.85,0 -12.71,-0.895 -17.59,-2.664 -4.87,-1.77 -8.86,-4.067 -11.98,-6.879 -3.11,-2.817 -5.39,-6.098 -6.85,-9.852 -1.45,-3.758 -2.17,-7.613 -2.17,-11.574 0,-7.715 2.07,-13.969 6.22,-18.766 4.15,-4.793 10.38,-9.488 18.68,-14.074 9.34,-4.98 18.83,-9.547 28.48,-13.691 9.64,-4.157 18.46,-8.926 26.45,-14.325 7.99,-5.398 14.52,-11.929 19.61,-19.605 5.09,-7.684 7.63,-17.641 7.63,-29.879 0,-7.891 -1.93,-15.207 -5.76,-21.945 -3.84,-6.746 -9.03,-12.559 -15.56,-17.43 -6.54,-4.879 -14.28,-8.719 -23.19,-11.516 -8.93,-2.8 -18.36,-4.203 -28.32,-4.203 -21.79,0 -38.44,3.735 -49.97,11.207 -11.51,7.469 -17.26,18.676 -17.26,33.614 0,7.468 2.53,13.64 7.62,18.519 5.08,4.871 11.68,7.316 19.76,7.316 5.4,-0.417 9.19,-1.82 11.37,-4.207 2.18,-2.382 3.26,-4.199 3.26,-5.445 0,-0.418 -0.58,-0.883 -1.71,-1.398 -1.14,-0.52 -2.44,-1.403 -3.9,-2.649 -1.44,-1.246 -2.74,-2.957 -3.88,-5.136 -1.14,-2.176 -1.71,-5.137 -1.71,-8.868 0,-9.336 2.85,-16.761 8.55,-22.254 5.71,-5.503 14.99,-8.25 27.87,-8.25"
         style="fill:#ffffff;fill-opacity:1;fill-rule:nonzero;stroke:none"
         id="path72" />
      <path
         d="m 2115.03,843.809 v -55.094 c 0,-2.91 0.16,-5.809 0.47,-8.715 0.31,-2.91 1.09,-5.496 2.33,-7.781 1.24,-2.285 3.21,-4.098 5.92,-5.446 2.7,-1.351 6.53,-2.023 11.51,-2.023 2.29,0 4.1,-0.211 5.45,-0.625 1.35,-0.418 2.12,-2.387 2.33,-5.91 0,-1.668 -0.41,-3.219 -1.24,-4.668 -0.83,-1.453 -2.29,-2.18 -4.36,-2.18 -13.48,0.621 -26.35,0.934 -38.59,0.934 -6.22,0 -12.3,-0.051 -18.22,-0.156 -5.9,-0.106 -12.18,-0.364 -18.82,-0.778 -2.08,0 -3.54,0.727 -4.36,2.18 -0.83,1.449 -1.24,3 -1.24,4.668 0.2,3.523 0.98,5.492 2.33,5.91 1.34,0.414 3.16,0.625 5.44,0.625 4.98,0 8.82,0.672 11.53,2.023 2.68,1.348 4.67,3.161 5.91,5.446 1.25,2.285 2.02,4.871 2.33,7.781 0.31,2.906 0.47,5.805 0.47,8.715 v 123.57 c 0,2.903 -0.16,5.805 -0.47,8.711 -0.31,2.906 -1.08,5.496 -2.33,7.781 -1.24,2.282 -3.23,4.098 -5.91,5.453 -2.71,1.34 -6.55,2.02 -11.53,2.02 -2.28,0 -4.1,0.203 -5.44,0.625 -1.35,0.41 -2.13,2.379 -2.33,5.914 0,1.652 0.41,3.211 1.24,4.668 0.82,1.445 2.28,2.176 4.36,2.176 6.64,-0.418 12.86,-0.68 18.68,-0.778 5.8,-0.105 11.82,-0.156 18.05,-0.156 12.45,0 25.42,0.309 38.9,0.934 2.07,0 3.53,-0.731 4.36,-2.176 0.83,-1.457 1.24,-3.016 1.24,-4.668 -0.21,-3.535 -0.98,-5.504 -2.33,-5.914 -1.35,-0.422 -3.16,-0.625 -5.45,-0.625 -4.98,0 -8.81,-0.68 -11.51,-2.02 -2.71,-1.355 -4.68,-3.171 -5.92,-5.453 -1.24,-2.285 -2.02,-4.875 -2.33,-7.781 -0.31,-2.906 -0.47,-5.808 -0.47,-8.711 v -55.094 h 97.73 v 55.094 c 0,2.903 -0.15,5.805 -0.47,8.711 -0.31,2.906 -1.08,5.496 -2.33,7.781 -1.24,2.282 -3.21,4.098 -5.91,5.453 -2.7,1.34 -6.54,2.02 -11.52,2.02 -2.29,0 -4.15,0.203 -5.6,0.625 -1.45,0.41 -2.28,2.379 -2.49,5.914 0,1.652 0.47,3.211 1.4,4.668 0.94,1.445 2.33,2.176 4.2,2.176 13.28,-0.625 26.25,-0.934 38.92,-0.934 6.22,0 12.28,0.051 18.2,0.156 5.91,0.098 12.19,0.36 18.83,0.778 1.87,0 3.27,-0.731 4.2,-2.176 0.93,-1.457 1.4,-3.016 1.4,-4.668 -0.2,-3.535 -1.03,-5.504 -2.49,-5.914 -1.45,-0.422 -3.22,-0.625 -5.29,-0.625 -4.97,0 -8.82,-0.68 -11.52,-2.02 -2.69,-1.355 -4.72,-3.171 -6.07,-5.453 -1.35,-2.285 -2.18,-4.875 -2.49,-7.781 -0.31,-2.906 -0.46,-5.808 -0.46,-8.711 v -123.57 c 0,-2.91 0.15,-5.809 0.46,-8.715 0.31,-2.91 1.14,-5.496 2.49,-7.781 1.35,-2.285 3.38,-4.098 6.07,-5.446 2.7,-1.351 6.55,-2.023 11.52,-2.023 2.07,0 3.84,-0.211 5.29,-0.625 1.46,-0.418 2.29,-2.387 2.49,-5.91 0,-1.668 -0.47,-3.219 -1.4,-4.668 -0.93,-1.453 -2.33,-2.18 -4.2,-2.18 -6.64,0.414 -12.97,0.672 -18.99,0.778 -6.02,0.105 -12.14,0.156 -18.36,0.156 -12.45,0 -25.32,-0.313 -38.6,-0.934 -1.87,0 -3.26,0.727 -4.2,2.18 -0.93,1.449 -1.4,3 -1.4,4.668 0.21,3.523 1.04,5.492 2.49,5.91 1.45,0.414 3.31,0.625 5.6,0.625 4.98,0 8.82,0.672 11.52,2.023 2.7,1.348 4.67,3.161 5.91,5.446 1.25,2.285 2.02,4.871 2.33,7.781 0.32,2.906 0.47,5.805 0.47,8.715 v 55.094 h -97.73"
         style="fill:#ffffff;fill-opacity:1;fill-rule:nonzero;stroke:none"
         id="path74" />
      <path
         d="m 2350.75,827.934 h 65.36 l -31.43,79.992 h -0.94 z m 12.44,122.632 c 6.44,0 12.09,-0.464 16.98,-1.402 4.87,-0.934 9.22,-2.543 13.06,-4.824 3.84,-2.285 7.32,-5.602 10.43,-9.953 3.12,-4.364 6.12,-9.961 9.03,-16.813 l 52.29,-128.859 c 1.04,-2.699 2.18,-5.442 3.43,-8.246 1.24,-2.805 2.68,-5.348 4.35,-7.625 1.66,-2.285 3.63,-4.199 5.91,-5.758 2.29,-1.559 5.09,-2.336 8.41,-2.336 2.28,0 4.09,-0.211 5.44,-0.625 1.35,-0.418 2.13,-2.387 2.34,-5.91 0,-1.668 -0.47,-3.219 -1.4,-4.668 -0.94,-1.453 -2.34,-2.18 -4.2,-2.18 -6.64,0.414 -12.45,0.672 -17.43,0.778 -4.98,0.105 -10.59,0.156 -16.81,0.156 -12.45,0 -25.32,-0.313 -38.59,-0.934 -2.08,0 -3.54,0.727 -4.36,2.18 -0.84,1.449 -1.25,3 -1.25,4.668 0.21,3.523 0.99,5.492 2.33,5.91 1.35,0.414 3.17,0.625 5.45,0.625 4.98,0 8.82,0.465 11.52,1.402 2.69,0.934 4.4,2.332 5.13,4.2 0.73,1.867 0.83,4.304 0.32,7.312 -0.52,3.004 -1.61,6.695 -3.28,11.051 l -10.57,25.836 h -76.89 c -4.98,-12.66 -8.3,-21.274 -9.96,-25.836 -1.66,-5.399 -2.8,-9.649 -3.41,-12.758 -0.63,-3.113 -0.32,-5.504 0.92,-7.164 1.25,-1.664 3.59,-2.754 7,-3.266 3.43,-0.523 8.15,-0.777 14.16,-0.777 2.29,0 4.11,-0.211 5.45,-0.625 1.35,-0.418 2.13,-2.387 2.34,-5.91 0,-1.668 -0.46,-3.219 -1.4,-4.668 -0.94,-1.453 -2.33,-2.18 -4.21,-2.18 -6.63,0.414 -12.39,0.672 -17.26,0.778 -4.89,0.105 -10.43,0.156 -16.65,0.156 -3.12,0 -5.81,0 -8.1,0 -2.28,0 -4.51,-0.051 -6.69,-0.156 -2.19,-0.106 -4.47,-0.207 -6.85,-0.313 -2.39,-0.102 -5.24,-0.262 -8.56,-0.465 -2.07,0 -3.52,0.727 -4.35,2.18 -0.83,1.449 -1.25,3 -1.25,4.668 0.21,3.523 0.98,5.492 2.33,5.91 1.36,0.414 3.16,0.625 5.45,0.625 4.15,0 7.52,0.672 10.12,2.023 2.58,1.348 4.76,3.161 6.53,5.446 1.76,2.285 3.27,4.871 4.51,7.781 1.25,2.906 2.49,5.805 3.74,8.715 l 54.46,128.859 c 1.46,3.735 1.98,6.742 1.57,9.028 -0.42,2.281 -1.4,4.144 -2.96,5.601 -1.55,1.449 -3.54,2.539 -5.91,3.27 -2.39,0.722 -4.83,1.297 -7.32,1.711 -3.11,0.625 -5.19,1.191 -6.23,1.714 -1.03,0.512 -1.55,2.332 -1.55,5.442 0,3.527 1.19,5.449 3.58,5.762 2.38,0.308 5.34,0.464 8.86,0.464"
         style="fill:#ffffff;fill-opacity:1;fill-rule:nonzero;stroke:none"
         id="path76" />
      <path
         d="m 2576.51,758.523 c 6.63,0 12.6,1.04 17.89,3.114 5.3,2.07 9.76,4.769 13.39,8.093 3.63,3.317 6.38,7.106 8.25,11.36 1.87,4.254 2.8,8.558 2.8,12.914 0,8.512 -2.6,15.566 -7.78,21.168 -5.19,5.605 -11.63,10.476 -19.3,14.629 -7.68,4.148 -16.03,8.094 -25.05,11.832 -9.03,3.734 -17.49,8.035 -25.37,12.914 -7.89,4.871 -14.47,10.84 -19.77,17.894 -5.29,7.051 -8.04,15.977 -8.25,26.766 -0.2,9.754 1.35,18.156 4.67,25.219 3.32,7.051 8.05,12.804 14.17,17.273 6.11,4.457 13.33,7.778 21.63,9.957 8.29,2.184 17.22,3.27 26.77,3.27 6.84,0 13.8,-0.731 20.86,-2.184 7.04,-1.449 13.37,-3.734 18.98,-6.844 5.6,-3.109 10.16,-7.16 13.69,-12.136 3.53,-4.985 5.29,-11.004 5.29,-18.055 0,-7.469 -2.54,-13.644 -7.62,-18.519 -5.09,-4.879 -11.67,-7.317 -19.77,-7.317 -5.4,0.422 -9.18,1.828 -11.36,4.227 -2.18,2.406 -3.27,4.226 -3.27,5.48 0,0.422 0.77,0.887 2.34,1.406 1.55,0.52 3.27,1.411 5.13,2.664 1.87,1.254 3.58,2.973 5.14,5.165 1.55,2.187 2.33,5.167 2.33,8.925 0,7.93 -3,14.039 -9.02,18.317 -6.02,4.281 -13.49,6.422 -22.41,6.422 -6.85,0 -12.72,-0.895 -17.59,-2.664 -4.87,-1.77 -8.87,-4.067 -11.98,-6.879 -3.12,-2.817 -5.4,-6.098 -6.85,-9.852 -1.45,-3.758 -2.18,-7.613 -2.18,-11.574 0,-7.715 2.08,-13.969 6.23,-18.766 4.15,-4.793 10.37,-9.488 18.67,-14.074 9.34,-4.98 18.84,-9.547 28.47,-13.691 9.66,-4.157 18.47,-8.926 26.47,-14.325 7.99,-5.398 14.52,-11.929 19.61,-19.605 5.08,-7.684 7.63,-17.641 7.63,-29.879 0,-7.891 -1.93,-15.207 -5.77,-21.945 -3.84,-6.746 -9.02,-12.559 -15.56,-17.43 -6.54,-4.879 -14.27,-8.719 -23.19,-11.516 -8.92,-2.8 -18.36,-4.203 -28.32,-4.203 -21.79,0 -38.44,3.735 -49.96,11.207 -11.51,7.469 -17.27,18.676 -17.27,33.614 0,7.468 2.54,13.64 7.62,18.519 5.09,4.871 11.67,7.316 19.77,7.316 5.39,-0.417 9.18,-1.82 11.36,-4.207 2.18,-2.382 3.27,-4.199 3.27,-5.445 0,-0.418 -0.58,-0.883 -1.72,-1.398 -1.13,-0.52 -2.44,-1.403 -3.89,-2.649 -1.45,-1.246 -2.75,-2.957 -3.88,-5.136 -1.15,-2.176 -1.72,-5.137 -1.72,-8.868 0,-9.336 2.85,-16.761 8.56,-22.254 5.71,-5.503 14.99,-8.25 27.86,-8.25"
         style="fill:#ffffff;fill-opacity:1;fill-rule:nonzero;stroke:none"
         id="path78" />
      <path
         d="m 2722.59,843.809 v -55.094 c 0,-2.91 0.15,-5.809 0.47,-8.715 0.31,-2.91 1.08,-5.496 2.33,-7.781 1.24,-2.285 3.21,-4.098 5.91,-5.446 2.69,-1.351 6.54,-2.023 11.52,-2.023 2.28,0 4.09,-0.211 5.44,-0.625 1.35,-0.418 2.13,-2.387 2.34,-5.91 0,-1.668 -0.42,-3.219 -1.24,-4.668 -0.83,-1.453 -2.29,-2.18 -4.36,-2.18 -13.5,0.621 -26.36,0.934 -38.6,0.934 -6.22,0 -12.29,-0.051 -18.21,-0.156 -5.9,-0.106 -12.18,-0.364 -18.82,-0.778 -2.08,0 -3.54,0.727 -4.37,2.18 -0.83,1.449 -1.24,3 -1.24,4.668 0.2,3.523 0.98,5.492 2.33,5.91 1.35,0.414 3.17,0.625 5.45,0.625 4.98,0 8.82,0.672 11.52,2.023 2.69,1.348 4.66,3.161 5.9,5.446 1.25,2.285 2.04,4.871 2.35,7.781 0.31,2.906 0.46,5.805 0.46,8.715 v 123.57 c 0,2.903 -0.15,5.805 -0.46,8.711 -0.31,2.906 -1.1,5.496 -2.35,7.781 -1.24,2.282 -3.21,4.098 -5.9,5.453 -2.7,1.34 -6.54,2.02 -11.52,2.02 -2.28,0 -4.1,0.203 -5.45,0.625 -1.35,0.41 -2.13,2.379 -2.33,5.914 0,1.652 0.41,3.211 1.24,4.668 0.83,1.445 2.29,2.176 4.37,2.176 6.64,-0.418 12.86,-0.68 18.67,-0.778 5.81,-0.105 11.82,-0.156 18.04,-0.156 12.46,0 25.42,0.309 38.92,0.934 2.07,0 3.53,-0.731 4.36,-2.176 0.82,-1.457 1.24,-3.016 1.24,-4.668 -0.21,-3.535 -0.99,-5.504 -2.34,-5.914 -1.35,-0.422 -3.16,-0.625 -5.44,-0.625 -4.98,0 -8.83,-0.68 -11.52,-2.02 -2.7,-1.355 -4.67,-3.171 -5.91,-5.453 -1.25,-2.285 -2.02,-4.875 -2.33,-7.781 -0.32,-2.906 -0.47,-5.808 -0.47,-8.711 v -55.094 h 97.73 v 55.094 c 0,2.903 -0.15,5.805 -0.47,8.711 -0.31,2.906 -1.09,5.496 -2.33,7.781 -1.25,2.282 -3.22,4.098 -5.92,5.453 -2.69,1.34 -6.53,2.02 -11.51,2.02 -2.29,0 -4.15,0.203 -5.6,0.625 -1.45,0.41 -2.29,2.379 -2.49,5.914 0,1.652 0.46,3.211 1.4,4.668 0.93,1.445 2.33,2.176 4.2,2.176 13.28,-0.625 26.25,-0.934 38.9,-0.934 6.23,0 12.3,0.051 18.22,0.156 5.91,0.098 12.18,0.36 18.82,0.778 1.87,0 3.28,-0.731 4.2,-2.176 0.94,-1.457 1.4,-3.016 1.4,-4.668 -0.2,-3.535 -1.03,-5.504 -2.49,-5.914 -1.44,-0.422 -3.21,-0.625 -5.28,-0.625 -4.98,0 -8.82,-0.68 -11.53,-2.02 -2.69,-1.355 -4.71,-3.171 -6.06,-5.453 -1.36,-2.285 -2.18,-4.875 -2.49,-7.781 -0.31,-2.906 -0.47,-5.808 -0.47,-8.711 v -123.57 c 0,-2.91 0.16,-5.809 0.47,-8.715 0.31,-2.91 1.13,-5.496 2.49,-7.781 1.35,-2.285 3.37,-4.098 6.06,-5.446 2.71,-1.351 6.55,-2.023 11.53,-2.023 2.07,0 3.84,-0.211 5.28,-0.625 1.46,-0.418 2.29,-2.387 2.49,-5.91 0,-1.668 -0.46,-3.219 -1.4,-4.668 -0.92,-1.453 -2.33,-2.18 -4.2,-2.18 -6.64,0.414 -12.96,0.672 -18.98,0.778 -6.02,0.105 -12.14,0.156 -18.37,0.156 -12.45,0 -25.31,-0.313 -38.59,-0.934 -1.87,0 -3.27,0.727 -4.2,2.18 -0.94,1.449 -1.4,3 -1.4,4.668 0.2,3.523 1.04,5.492 2.49,5.91 1.45,0.414 3.31,0.625 5.6,0.625 4.98,0 8.82,0.672 11.51,2.023 2.7,1.348 4.67,3.161 5.92,5.446 1.24,2.285 2.02,4.871 2.33,7.781 0.32,2.906 0.47,5.805 0.47,8.715 v 55.094 h -97.73"
         style="fill:#ffffff;fill-opacity:1;fill-rule:nonzero;stroke:none"
         id="path80" />
      <path
         d="m 2952.39,788.715 c 0,-2.91 0.16,-5.809 0.46,-8.715 0.31,-2.91 1.1,-5.496 2.35,-7.781 1.24,-2.285 3.21,-4.098 5.9,-5.446 2.7,-1.351 6.55,-2.023 11.53,-2.023 2.27,0 4.09,-0.211 5.44,-0.625 1.34,-0.418 2.22,-2.387 2.64,-5.91 0,-1.668 -0.47,-3.219 -1.39,-4.668 -0.94,-1.453 -2.34,-2.18 -4.2,-2.18 -13.5,0.621 -26.36,0.934 -38.61,0.934 -6.22,0 -12.34,-0.051 -18.36,-0.156 -6.02,-0.106 -12.35,-0.364 -18.99,-0.778 -2.07,0 -3.53,0.727 -4.36,2.18 -0.83,1.449 -1.24,3 -1.24,4.668 0.21,3.523 1.04,5.492 2.49,5.91 1.45,0.414 3.22,0.625 5.3,0.625 4.98,0 8.82,0.672 11.51,2.023 2.7,1.348 4.67,3.161 5.92,5.446 1.24,2.285 2.02,4.871 2.33,7.781 0.32,2.906 0.57,5.805 0.77,8.715 v 123.57 c -0.2,2.903 -0.45,5.805 -0.77,8.711 -0.31,2.906 -1.09,5.496 -2.33,7.781 -1.25,2.282 -3.22,4.098 -5.92,5.453 -2.69,1.34 -6.53,2.02 -11.51,2.02 -2.08,0 -3.85,0.203 -5.3,0.625 -1.45,0.41 -2.28,2.379 -2.49,5.914 0,1.652 0.41,3.211 1.24,4.668 0.83,1.445 2.29,2.176 4.36,2.176 6.64,-0.418 12.92,-0.68 18.84,-0.778 5.92,-0.105 11.98,-0.156 18.2,-0.156 12.45,0 25.42,0.309 38.92,0.934 1.86,0 3.26,-0.731 4.2,-2.176 0.92,-1.457 1.39,-3.016 1.39,-4.668 -0.42,-3.535 -1.3,-5.504 -2.64,-5.914 -1.35,-0.422 -3.17,-0.625 -5.44,-0.625 -4.98,0 -8.83,-0.68 -11.53,-2.02 -2.69,-1.355 -4.66,-3.171 -5.9,-5.453 -1.25,-2.285 -2.04,-4.875 -2.35,-7.781 -0.3,-2.906 -0.46,-5.808 -0.46,-8.711 v -123.57"
         style="fill:#ffffff;fill-opacity:1;fill-rule:nonzero;stroke:none"
         id="path82" />
      <path
         d="m 3053.96,784.047 c 0.2,-2.074 0.42,-4.258 0.62,-6.535 0.21,-2.285 0.98,-4.41 2.33,-6.383 1.35,-1.973 3.48,-3.578 6.38,-4.82 2.91,-1.246 7.06,-1.77 12.45,-1.559 h 28.02 c 5.39,0.199 9.8,0.879 13.23,2.023 3.42,1.137 6.27,3.11 8.56,5.915 2.27,2.8 4.24,6.484 5.91,11.046 1.66,4.563 3.52,10.27 5.6,17.121 0.83,2.071 2.23,3.422 4.2,4.047 1.97,0.621 4.1,0.723 6.39,0.309 1.66,-0.414 3.37,-1.195 5.13,-2.336 1.76,-1.137 2.53,-2.746 2.34,-4.824 l -6.23,-39.211 c -0.62,-2.91 -1.6,-4.731 -2.95,-5.449 -1.36,-0.731 -3.38,-1.09 -6.08,-1.09 h -102.09 c -6.22,0 -12.29,-0.051 -18.21,-0.156 -5.91,-0.106 -12.28,-0.364 -19.14,-0.778 -1.87,0 -3.22,0.727 -4.04,2.18 -0.83,1.449 -1.24,3 -1.24,4.668 0.19,3.113 0.97,4.976 2.32,5.601 1.35,0.622 3.17,0.934 5.45,0.934 4.98,0 8.82,0.672 11.52,2.023 2.69,1.348 4.67,3.161 5.91,5.446 1.25,2.285 2.02,4.871 2.34,7.781 0.31,2.906 0.46,5.805 0.46,8.715 v 123.57 c 0,2.903 -0.15,5.805 -0.46,8.711 -0.32,2.906 -1.09,5.496 -2.34,7.781 -1.24,2.282 -3.22,4.098 -5.91,5.453 -2.7,1.34 -6.54,2.02 -11.52,2.02 -2.28,0 -4.1,0.258 -5.45,0.777 -1.35,0.516 -2.13,2.438 -2.32,5.762 0,2.07 0.41,3.734 1.24,4.981 0.82,1.238 2.17,1.863 4.04,1.863 6.86,-0.418 13.17,-0.68 18.99,-0.778 5.8,-0.105 11.83,-0.156 18.05,-0.156 12.45,0 25.42,0.309 38.91,0.934 2.07,0 3.52,-0.731 4.35,-2.176 0.83,-1.457 1.25,-3.016 1.25,-4.668 -0.21,-3.535 -1.04,-5.504 -2.49,-5.914 -1.45,-0.422 -3.22,-0.625 -5.29,-0.625 -4.98,0 -8.82,-0.68 -11.51,-2.02 -2.71,-1.355 -4.67,-3.171 -5.92,-5.453 -1.24,-2.285 -2.02,-4.875 -2.34,-7.781 -0.31,-2.906 -0.46,-5.808 -0.46,-8.711 V 784.047"
         style="fill:#ffffff;fill-opacity:1;fill-rule:nonzero;stroke:none"
         id="path84" />
      <path
         d="m 3234.31,827.934 h 65.36 l -31.44,79.992 h -0.94 z m 12.45,122.632 c 6.42,0 12.08,-0.464 16.96,-1.402 4.87,-0.934 9.23,-2.543 13.08,-4.824 3.83,-2.285 7.3,-5.602 10.42,-9.953 3.11,-4.364 6.12,-9.961 9.02,-16.813 l 52.3,-128.859 c 1.03,-2.699 2.17,-5.442 3.42,-8.246 1.24,-2.805 2.69,-5.348 4.36,-7.625 1.66,-2.285 3.62,-4.199 5.92,-5.758 2.27,-1.559 5.07,-2.336 8.39,-2.336 2.29,0 4.1,-0.211 5.45,-0.625 1.35,-0.418 2.12,-2.387 2.34,-5.91 0,-1.668 -0.47,-3.219 -1.41,-4.668 -0.93,-1.453 -2.32,-2.18 -4.2,-2.18 -6.64,0.414 -12.45,0.672 -17.43,0.778 -4.98,0.105 -10.58,0.156 -16.81,0.156 -12.45,0 -25.31,-0.313 -38.59,-0.934 -2.08,0 -3.52,0.727 -4.35,2.18 -0.84,1.449 -1.25,3 -1.25,4.668 0.2,3.523 0.98,5.492 2.34,5.91 1.34,0.414 3.15,0.625 5.44,0.625 4.98,0 8.82,0.465 11.51,1.402 2.7,0.934 4.42,2.332 5.14,4.2 0.73,1.867 0.83,4.304 0.31,7.312 -0.52,3.004 -1.61,6.695 -3.27,11.051 l -10.58,25.836 h -76.88 c -4.98,-12.66 -8.3,-21.274 -9.95,-25.836 -1.67,-5.399 -2.81,-9.649 -3.43,-12.758 -0.63,-3.113 -0.31,-5.504 0.94,-7.164 1.24,-1.664 3.57,-2.754 6.99,-3.266 3.43,-0.523 8.14,-0.777 14.17,-0.777 2.28,0 4.09,-0.211 5.44,-0.625 1.35,-0.418 2.13,-2.387 2.34,-5.91 0,-1.668 -0.47,-3.219 -1.4,-4.668 -0.94,-1.453 -2.34,-2.18 -4.2,-2.18 -6.64,0.414 -12.41,0.672 -17.28,0.778 -4.88,0.105 -10.43,0.156 -16.65,0.156 -3.11,0 -5.81,0 -8.09,0 -2.29,0 -4.52,-0.051 -6.69,-0.156 -2.18,-0.106 -4.47,-0.207 -6.86,-0.313 -2.38,-0.102 -5.23,-0.262 -8.55,-0.465 -2.07,0 -3.53,0.727 -4.36,2.18 -0.83,1.449 -1.24,3 -1.24,4.668 0.21,3.523 0.98,5.492 2.32,5.91 1.36,0.414 3.17,0.625 5.45,0.625 4.15,0 7.52,0.672 10.12,2.023 2.6,1.348 4.78,3.161 6.53,5.446 1.77,2.285 3.28,4.871 4.53,7.781 1.24,2.906 2.49,5.805 3.73,8.715 l 54.47,128.859 c 1.44,3.735 1.96,6.742 1.55,9.028 -0.42,2.281 -1.39,4.144 -2.96,5.601 -1.55,1.449 -3.52,2.539 -5.91,3.27 -2.39,0.722 -4.82,1.297 -7.31,1.711 -3.12,0.625 -5.19,1.191 -6.23,1.714 -1.04,0.512 -1.55,2.332 -1.55,5.442 0,3.527 1.19,5.449 3.57,5.762 2.38,0.308 5.34,0.464 8.88,0.464"
         style="fill:#ffffff;fill-opacity:1;fill-rule:nonzero;stroke:none"
         id="path86" />
    </g>
  </g>
</svg>
